<svg width="206" height="20" viewBox="0 0 206 29" fill="none" xmlns="http://www.w3.org/2000/svg">
<path d="M22.8906 28.0933C25.2374 27.8193 30.7416 26.3263 33.9845 22.5459C31.6377 22.7514 26.1334 24.1485 22.8906 28.0933Z" fill="#066DB8"/>
<path d="M14.3555 28.0933C12.0087 27.8193 6.50445 26.3263 3.26164 22.5459C5.60841 22.7514 11.1127 24.1485 14.3555 28.0933Z" fill="#066DB8"/>
<path d="M19.0508 28.5032C21.9665 26.8595 29.5899 21.723 36.7582 14.3265C31.9225 14.0526 21.6109 16.5044 19.0508 28.5032Z" fill="#066DB8"/>
<path d="M18.1953 28.5032C15.2796 26.8595 7.65617 21.723 0.48785 14.3265C5.32362 14.0526 15.6352 16.5044 18.1953 28.5032Z" fill="#066DB8"/>
<path d="M29.5022 6.1084C28.8621 9.32726 25.918 16.669 19.2617 20.2851C19.5462 17.2717 21.9925 10.2176 29.5022 6.1084Z" fill="#066DB8"/>
<path d="M7.74392 6.1084C8.38394 9.32726 11.3281 16.669 17.9844 20.2851C17.6999 17.2717 15.2536 10.2176 7.74392 6.1084Z" fill="#066DB8"/>
<path d="M25.4493 6.72475C22.0358 7.38222 19.3335 10.9709 18.409 12.6831C17.5556 9.88882 13.5021 7.54659 11.582 6.72475C12.9474 3.43741 15.7067 4.53319 16.9156 5.49199C17.0863 3.84833 17.9823 2.06768 18.409 1.38281C19.7744 2.04028 20.1157 4.39621 20.1157 5.49199C22.6759 3.19085 24.7382 5.35502 25.4493 6.72475Z" fill="#066DB8"/>
<path d="M37.0352 4.86373H43.7866V26.0716H47.0032V4.86373H53.7193V2.34465H37.0352V4.86373Z" fill="#066DB8"/>
<path d="M56.477 16.6762C56.477 22.4632 60.4713 26.378 65.6321 26.378C69.2023 26.378 71.7119 24.6079 72.8784 22.5994V26.0716H76.1304V7.41684H72.8784V10.821C71.7473 8.88063 69.2729 7.11047 65.6675 7.11047C60.4713 7.11047 56.477 10.855 56.477 16.6762ZM72.8784 16.7102C72.8784 21.1016 69.8385 23.6547 66.3037 23.6547C62.7689 23.6547 59.7644 21.0675 59.7644 16.6762C59.7644 12.2848 62.7689 9.79976 66.3037 9.79976C69.8385 9.79976 72.8784 12.3869 72.8784 16.7102Z" fill="#066DB8"/>
<path d="M84.7829 10.8891V0.880859H81.5663V26.0716H84.7829V22.6334C85.9847 24.6759 88.4944 26.378 92.0292 26.378C97.2254 26.378 101.22 22.4632 101.22 16.6762C101.22 10.855 97.2607 7.11047 92.0292 7.11047C88.6005 7.11047 86.0201 8.81255 84.7829 10.8891ZM97.9323 16.6762C97.9323 21.0675 94.9277 23.6547 91.3576 23.6547C87.8582 23.6547 84.7829 21.1016 84.7829 16.7102C84.7829 12.3869 87.8582 9.79976 91.3576 9.79976C94.9277 9.79976 97.9323 12.2848 97.9323 16.6762Z" fill="#066DB8"/>
<path d="M105.454 26.0716H108.67V0.880859H105.454V26.0716Z" fill="#066DB8"/>
<path d="M122.389 9.73167C125.711 9.73167 128.539 11.7401 128.504 15.3826H116.273C116.627 11.7401 119.243 9.73167 122.389 9.73167ZM131.438 20.3186H127.974C127.267 22.3271 125.429 23.7568 122.53 23.7568C119.243 23.7568 116.486 21.6803 116.238 17.9017H131.72C131.791 17.2549 131.826 16.7102 131.826 16.0294C131.826 10.9231 128.15 7.11047 122.53 7.11047C116.874 7.11047 112.951 10.821 112.951 16.7102C112.951 22.6334 117.016 26.378 122.53 26.378C127.337 26.378 130.448 23.7228 131.438 20.3186Z" fill="#066DB8"/>
<path d="M155.021 10.0725C155.021 11.5249 154.667 12.8525 153.96 14.0553C153.277 15.2354 152.228 16.1886 150.814 16.9148C149.424 17.6184 147.716 17.9701 145.689 17.9701H142.26V26.072H135.332V2.0727H145.689C147.692 2.0727 149.389 2.41311 150.779 3.09395C152.193 3.77478 153.253 4.7166 153.96 5.9194C154.667 7.1222 155.021 8.50656 155.021 10.0725ZM145.017 12.6596C146.973 12.6596 147.951 11.7972 147.951 10.0725C147.951 8.32501 146.973 7.45127 145.017 7.45127H142.26V12.6596H145.017Z" fill="black"/>
<path d="M169.752 26.3103C167.419 26.3103 165.274 25.7883 163.318 24.7444C161.362 23.6778 159.807 22.214 158.652 20.353C157.521 18.4694 156.956 16.3475 156.956 13.9873C156.956 11.627 157.521 9.51646 158.652 7.65552C159.807 5.77189 161.362 4.3081 163.318 3.26416C165.274 2.22021 167.419 1.69824 169.752 1.69824C172.108 1.69824 174.253 2.22021 176.185 3.26416C178.141 4.3081 179.684 5.77189 180.816 7.65552C181.947 9.51646 182.512 11.627 182.512 13.9873C182.512 16.3475 181.947 18.4694 180.816 20.353C179.684 22.214 178.141 23.6778 176.185 24.7444C174.229 25.7883 172.085 26.3103 169.752 26.3103ZM169.752 20.1147C171.519 20.1147 172.909 19.5587 173.923 18.4467C174.96 17.3347 175.478 15.8482 175.478 13.9873C175.478 12.0809 174.96 10.5831 173.923 9.49377C172.909 8.38174 171.519 7.82573 169.752 7.82573C167.961 7.82573 166.559 8.38174 165.545 9.49377C164.532 10.5831 164.025 12.0809 164.025 13.9873C164.025 15.8709 164.532 17.3687 165.545 18.4808C166.559 19.5701 167.961 20.1147 169.752 20.1147Z" fill="black"/>
<path d="M205.316 10.0725C205.316 11.5249 204.962 12.8525 204.255 14.0553C203.572 15.2354 202.523 16.1886 201.109 16.9148C199.719 17.6184 198.01 17.9701 195.984 17.9701H192.555V26.072H185.627V2.0727H195.984C197.987 2.0727 199.683 2.41311 201.074 3.09395C202.488 3.77478 203.548 4.7166 204.255 5.9194C204.962 7.1222 205.316 8.50656 205.316 10.0725ZM195.312 12.6596C197.268 12.6596 198.246 11.7972 198.246 10.0725C198.246 8.32501 197.268 7.45127 195.312 7.45127H192.555V12.6596H195.312Z" fill="black"/>
</svg>
